<svg width="114" height="36" viewBox="0 0 114 36" fill="none" xmlns="http://www.w3.org/2000/svg">
<path d="M62.1412 23.552H55.3492L54.1492 26.96H50.5732L56.8132 10.208H60.6772L66.8932 26.96H63.3172L62.1412 23.552ZM61.2292 20.984L58.7332 13.832L56.2372 20.984H61.2292Z" fill="#2E2E2E"/>
<path d="M72.1037 9.2V26.96H68.7197V9.2H72.1037Z" fill="#2E2E2E"/>
<path d="M78.549 9.2V26.96H75.165V9.2H78.549Z" fill="#2E2E2E"/>
<path d="M81.2263 9.848C81.2263 9.304 81.4183 8.864 81.8023 8.528C82.1863 8.176 82.6903 8 83.3143 8C83.9383 8 84.4423 8.176 84.8263 8.528C85.2103 8.864 85.4023 9.304 85.4023 9.848C85.4023 10.376 85.2103 10.816 84.8263 11.168C84.4423 11.504 83.9383 11.672 83.3143 11.672C82.6903 11.672 82.1863 11.504 81.8023 11.168C81.4183 10.816 81.2263 10.376 81.2263 9.848ZM84.9943 13.664V26.96H81.6103V13.664H84.9943Z" fill="#2E2E2E"/>
<path d="M100.56 19.808C100.56 20.144 100.52 20.528 100.44 20.96H90.6956C90.7436 22.144 91.0636 23.016 91.6556 23.576C92.2476 24.136 92.9836 24.416 93.8636 24.416C94.6476 24.416 95.2956 24.224 95.8076 23.84C96.3356 23.456 96.6716 22.936 96.8156 22.28H100.392C100.216 23.208 99.8396 24.04 99.2636 24.776C98.6876 25.512 97.9436 26.088 97.0316 26.504C96.1356 26.92 95.1356 27.128 94.0316 27.128C92.7356 27.128 91.5836 26.856 90.5756 26.312C89.5676 25.752 88.7836 24.96 88.2236 23.936C87.6636 22.912 87.3836 21.704 87.3836 20.312C87.3836 18.92 87.6636 17.712 88.2236 16.688C88.7836 15.648 89.5676 14.856 90.5756 14.312C91.5836 13.768 92.7356 13.496 94.0316 13.496C95.3436 13.496 96.4876 13.768 97.4636 14.312C98.4556 14.856 99.2156 15.608 99.7436 16.568C100.288 17.512 100.56 18.592 100.56 19.808ZM97.1516 19.472C97.1996 18.384 96.9116 17.56 96.2876 17C95.6796 16.44 94.9276 16.16 94.0316 16.16C93.1196 16.16 92.3516 16.44 91.7276 17C91.1036 17.56 90.7596 18.384 90.6956 19.472H97.1516Z" fill="#2E2E2E"/>
<path d="M107.546 13.496C109.162 13.496 110.458 13.904 111.434 14.72C112.41 15.536 113.018 16.624 113.258 17.984H110.09C109.962 17.344 109.674 16.832 109.226 16.448C108.778 16.064 108.194 15.872 107.474 15.872C106.898 15.872 106.45 16.008 106.13 16.28C105.81 16.552 105.65 16.92 105.65 17.384C105.65 17.752 105.778 18.048 106.034 18.272C106.29 18.496 106.61 18.672 106.994 18.8C107.378 18.928 107.93 19.08 108.65 19.256C109.658 19.48 110.474 19.72 111.098 19.976C111.738 20.216 112.282 20.608 112.73 21.152C113.194 21.68 113.426 22.4 113.426 23.312C113.426 24.448 112.978 25.368 112.082 26.072C111.202 26.776 110.01 27.128 108.506 27.128C106.778 27.128 105.394 26.744 104.354 25.976C103.314 25.192 102.682 24.08 102.458 22.64H105.698C105.778 23.296 106.066 23.816 106.562 24.2C107.058 24.568 107.706 24.752 108.506 24.752C109.082 24.752 109.522 24.616 109.826 24.344C110.13 24.056 110.282 23.688 110.282 23.24C110.282 22.856 110.146 22.544 109.874 22.304C109.618 22.064 109.29 21.88 108.89 21.752C108.506 21.624 107.954 21.472 107.234 21.296C106.242 21.072 105.434 20.848 104.81 20.624C104.202 20.384 103.674 20.008 103.226 19.496C102.794 18.984 102.578 18.28 102.578 17.384C102.578 16.232 103.018 15.296 103.898 14.576C104.778 13.856 105.994 13.496 107.546 13.496Z" fill="#2E2E2E"/>
<rect x="17" width="12" height="34" rx="6" transform="rotate(30 17 0)" fill="#48B774"/>
<circle cx="29.5732" cy="27.3" r="6" fill="#FF8345"/>
</svg>
